<svg viewBox="0 0 86 46" fill="none" xmlns="http://www.w3.org/2000/svg">
  <path d="M31.25 28.2C30.16 30.44 28.37 32.22 26.18 33.27C23.99 34.33 21.52 34.58 19.18 34C16.83 33.41 14.74 32.03 13.25 30.06C11.75 28.09 10.94 25.66 10.94 23.16C10.94 20.65 11.75 18.22 13.25 16.26C14.74 14.29 16.83 12.9 19.18 12.32C21.52 11.74 23.99 11.99 26.18 13.04C28.37 14.09 30.16 15.88 31.25 18.11H42.87C41.68 12.72 38.61 7.97 34.26 4.77C29.9 1.57 24.57 0.14 19.27 0.77C13.97 1.39 9.07 4.02 5.52 8.15C1.97 12.28 0 17.62 0 23.16C0 28.7 1.97 34.04 5.52 38.17C9.07 42.3 13.97 44.93 19.27 45.55C24.57 46.17 29.9 44.75 34.26 41.55C38.61 38.35 41.68 33.6 42.87 28.2H31.25Z" fill="#00C19F"/>
  <path d="M54.5 28.2C55.59 30.44 57.37 32.22 59.56 33.27C61.75 34.33 64.22 34.58 66.57 34C68.91 33.41 71 32.03 72.5 30.06C74 28.09 74.8 25.66 74.8 23.16C74.8 20.65 74 18.22 72.5 16.26C71 14.29 68.91 12.9 66.57 12.32C64.22 11.74 61.75 11.99 59.56 13.04C57.37 14.09 55.59 15.88 54.5 18.11H42.87C44.07 12.72 47.13 7.97 51.49 4.77C55.84 1.57 61.18 0.14 66.48 0.77C71.78 1.39 76.67 4.02 80.22 8.15C83.78 12.28 85.74 17.62 85.74 23.16C85.74 28.7 83.78 34.04 80.22 38.17C76.67 42.3 71.78 44.93 66.48 45.55C61.18 46.17 55.84 44.75 51.49 41.55C47.13 38.35 44.07 33.6 42.87 28.2H54.5Z" fill="#00C19F"/>
</svg>