<svg viewBox="0 0 24 24" xmlns="http://www.w3.org/2000/svg">
  <path d="M22 6c0-1.1-.9-2-2-2H4c-1.1 0-2 .9-2 2v12c0 1.1.9 2 2 2h16c1.1 0 2-.9 2-2V6z" fill="#F6F6F6"/>
  <path d="M22 6l-10 7L2 6" fill="none" stroke="#EA4335" stroke-width="1.5" stroke-linecap="round" stroke-linejoin="round"/>
  <path d="M2 6l10 7 10-7v12c0 1.1-.9 2-2 2H4c-1.1 0-2-.9-2-2V6z" fill="none" stroke="#D93025" stroke-width=".5" opacity=".3"/>
  <path d="M2 6h20" fill="none"/>
  <path d="M22 6l-10 7L2 6" fill="#EA4335" opacity=".15"/>
</svg>