<svg viewBox="0 0 24 24" xmlns="http://www.w3.org/2000/svg">
  <path d="M19.823 10.552a4.062 4.062 0 0 0-1.636-1.637 4.093 4.093 0 0 0-.826-.368 3.728 3.728 0 0 0-1.262-3.564A3.726 3.726 0 0 0 12.463 4a3.727 3.727 0 0 0-3.635 2.983A4.093 4.093 0 0 0 8 7.35a4.088 4.088 0 0 0-2.181 2.202 3.726 3.726 0 0 0-.496 4.653 4.062 4.062 0 0 0 1.636 1.637c.262.15.54.274.826.368a3.728 3.728 0 0 0 1.262 3.564A3.726 3.726 0 0 0 12.683 20h.001a3.727 3.727 0 0 0 3.635-2.983c.287.088.568.159.852.21a4.088 4.088 0 0 0 2.181-2.202 3.726 3.726 0 0 0 .496-4.653l-.025.18z" fill="none" stroke="#4285F4" stroke-width=".8"/>
  <circle cx="8" cy="14.5" r="1.5" fill="#EA4335"/>
  <circle cx="12" cy="6" r="1.5" fill="#4285F4"/>
  <circle cx="16" cy="14.5" r="1.5" fill="#34A853"/>
  <circle cx="8" cy="9.5" r="1.5" fill="#FBBC05"/>
  <circle cx="16" cy="9.5" r="1.5" fill="#4285F4"/>
  <circle cx="12" cy="18" r="1.5" fill="#EA4335"/>
</svg>