<svg xmlns="http://www.w3.org/2000/svg" viewBox="0 0 210 50" fill="#009999">
  <path d="M200.121 10.347v5.829c-3.02-1.14-5.708-1.716-8.062-1.716-1.394 0-2.504.258-3.338.757-.835.503-1.26 1.123-1.26 1.854 0 .972.942 1.837 2.839 2.611l5.48 2.667c4.431 2.112 6.63 4.917 6.63 8.44 0 2.93-1.166 5.266-3.52 6.995-2.335 1.747-5.48 2.611-9.395 2.611-1.807 0-3.428-.077-4.87-.241-1.44-.155-3.097-.473-4.934-.93v-6.1c3.368 1.14 6.435 1.717 9.197 1.717 3.295 0 4.934-.955 4.934-2.882 0-.96-.671-1.734-2.035-2.34l-6.087-2.594c-2.245-1.015-3.914-2.246-5.007-3.704-1.075-1.471-1.622-3.157-1.622-5.085 0-2.697 1.136-4.87 3.381-6.521 2.263-1.64 5.266-2.461 9-2.461 1.213 0 2.611.108 4.16.305 1.561.211 3.063.469 4.508.788z"/>
  <path d="M27.722 10.347v5.829c-3.02-1.14-5.704-1.716-8.057-1.716-1.398 0-2.504.258-3.338.757-.835.503-1.26 1.123-1.26 1.854 0 .972.955 1.837 2.852 2.611l5.48 2.667c4.414 2.112 6.617 4.917 6.617 8.44 0 2.93-1.17 5.266-3.506 6.995-2.353 1.747-5.48 2.611-9.408 2.611-1.807 0-3.433-.077-4.874-.241-1.44-.155-3.08-.473-4.93-.93v-6.1c3.381 1.14 6.448 1.717 9.193 1.717 3.295 0 4.934-.955 4.934-2.882 0-.96-.667-1.734-2.018-2.34l-6.087-2.594c-2.263-1.015-3.932-2.246-5.007-3.704-1.093-1.471-1.626-3.157-1.626-5.085 0-2.697 1.127-4.87 3.386-6.521 2.245-1.64 5.252-2.461 8.986-2.461 1.226 0 2.607.108 4.173.305 1.549.211 3.05.469 4.491.788z"/>
  <path d="M34.003 9.8h8.926v30.048h-8.926z"/>
  <path d="M71.687 9.8v5.554H58.424v6.663h11.503v5.008H58.424v6.994h13.533v5.83H49.834V9.8z"/>
  <path d="M113.358 9.8v30.048h-8.333V20.03l-8.646 20.094h-5.145l-8.316-20.094v19.818h-6.027V9.8h10.896l7.438 18.395L103.008 9.8z"/>
  <path d="M142.103 9.8v5.554h-13.19v6.663h11.503v5.008h-11.503v6.994h13.461v5.83H120.25V9.8z"/>
  <path d="M173.424 9.8v30.048h-9.468L153.331 20.576v19.272h-6.023V9.8h9.744l10.35 18.941V9.8z"/>
</svg>